PathFileType	4	(X/Y/Z)	C:/Users/beibeiliu/ov580/test_trc/User1\sequence.2_training_dense_left.trc
DataRate	CameraRate	NumFrames	NumMarkers	Units	OrigDataRate	OrigDataStartFrame	OrigNumFrames
120	120	20	19	mm	120	184	244
Frame#	Time	ThumbCMC			ThumbMCP			ThumbIP			ThumbTip			IndexMCP			IndexPIP			IndexTip			MiddleMCP			MiddlePIP			MiddleTip			RingMCP			RingPIP			RingTip			PinkyMCP			PinkyPIP			PinkyTip			BackHand1			BackHand2			BackHand3	
		X0	Y0	Z0	X1	Y1	Z1	X2	Y2	Z2	X3	Y3	Z3	X4	Y4	Z4	X5	Y5	Z5	X6	Y6	Z6	X7	Y7	Z7	X8	Y8	Z8	X9	Y9	Z9	X10	Y10	Z10	X11	Y11	Z11	X12	Y12	Z12	X13	Y13	Z13	X14	Y14	Z14	X15	Y15	Z15	X16	Y16	Z16	X17	Y17	Z17	X18	Y18	Z18	
183	1.525	-177.315	41.681	17.0725	-196.626	7.46033	14.1434	-207.843	-14.8896	1.66301	-223.225	-29.0466	-12.0945	-173.416	4.92311	-59.4499	-193.893	-22.8171	-65.4698	-220.589	-30.0646	-53.6634	-184.463	26.4094	-78.5025	-204.145	-4.3523	-92.9987	-232.971	-21.8457	-84.1092	-198.775	43.8937	-82.8392	-216.97	19.6897	-100.478	-237.58	0.479792	-92.1166	-217.971	70.5276	-73.9655	-225.35	51.7002	-93.0278	-235.006	29.0252	-104.192	-186.603	83.1	-34.5654	-186.237	106.494	-12.1334	-166.056	72.2059	-10.4304	
184	1.53333	-174.186	39.9069	17.6385	-192.796	8.37544	18.7017	-204.537	-13.4907	6.67354	-217.695	-30.5533	0.00237383	-175.789	3.40007	-54.6976	-194.5	-21.7604	-59.3731	-223.186	-28.5875	-43.1398	-191.833	17.7399	-77.298	-205.567	-9.81608	-83.4575	-234.394	-27.8599	-68.7413	-207.769	36.5261	-81.8329	-223.77	10.5629	-89.3859	-247.668	-7.37532	-73.5412	-225.228	61.4975	-72.1848	-234.463	40.932	-86.5954	-249.177	17.4016	-88.4092	-191.41	81.3951	-37.4978	-189.932	102.773	-10.9436	-166.946	70.1781	-13.6661	
185	1.54167	-172.342	44.2839	21.2209	-186.825	10.1504	22.3324	-196.37	-15.5394	12.6147	-211.365	-32.285	4.32555	-176.073	-1.0368	-50.7455	-194.836	-24.8034	-51.3218	-218.438	-29.7738	-27.8349	-191.024	10.9367	-69.0198	-211.098	-15.8	-71.4826	-234.729	-31.2873	-48.5422	-211.584	30.472	-71.5036	-226.299	0.614775	-76.926	-245.593	-13.0043	-51.6342	-228.108	52.8866	-62.7984	-243.309	27.6529	-76.2056	-249.926	3.28028	-66.377	-195.66	78.0294	-36.5892	-193.305	99.1078	-13.9523	-168.686	70.3764	-13.5633	
186	1.55	-166.657	50.1651	22.234	-178.357	14.4589	27.022	-185.136	-12.7627	23.453	-199.009	-31.3962	17.4464	-174.136	1.69778	-44.5021	-192.061	-30.216	-38.8545	-208.148	-31.4911	-13.8054	-195.425	9.57388	-62.1929	-209.2	-25.9821	-56.6445	-228.026	-36.0914	-27.8245	-214.212	16.3066	-65.6814	-231.231	-11.6299	-59.9506	-243.151	-16.0815	-27.5455	-237.739	40.5892	-60.6557	-242.261	13.8234	-63.2524	-243.238	-8.82835	-38.8409	-206.933	77.0983	-37.1108	-201.177	100.656	-18.3142	-171.786	75.179	-13.5762	
187	1.55833	-168.682	59.7026	18.5603	-171.866	24.8736	28.9648	-173.789	-5.7647	29.0974	-183.341	-29.328	26.5881	-170.496	-1.14217	-41.0498	-179.493	-29.0015	-32.519	-195.622	-29.4381	2.72064	-189.833	0.0848428	-55.6436	-203.494	-30.1183	-45.2509	-215.035	-35.5759	-11.682	-212.242	7.48349	-57.5945	-222.322	-20.5239	-43.8554	-230.785	-19.3091	-13.4783	-239.172	27.5567	-53.1482	-242.701	-1.32087	-47.1866	-236.627	-10.4039	-16.5514	-207.294	67.3705	-37.3297	-212.404	97.36	-20.5371	-179.566	76.6626	-21.2193	
188	1.56667	-165.865	66.1652	16.9452	-163.394	30.9787	32.2234	-161.973	2.33646	34.2076	-170.305	-22.554	34.7128	-163.128	1.92433	-36.9409	-168.259	-27.0266	-24.2488	-182.942	-26.1407	10.0742	-188.982	1.61189	-50.8452	-190.793	-31.8841	-34.9428	-199.428	-32.7792	5.79533	-211.926	1.84789	-50.9004	-216.647	-26.3599	-31.5129	-218.162	-19.1543	1.52265	-234.315	13.9711	-44.841	-236.088	-10.1479	-32.8725	-228.368	-9.9489	-1.51329	-214.926	64.1543	-41.0062	-218.24	97.2329	-21.1693	-182.344	77.5267	-24.8449	
189	1.575	-166.5	72.4371	14.7172	-163.042	40.2665	30.2479	-154.626	14.7639	40.1518	-156.913	-13.6534	44.5935	-155.244	9.5277	-34.5615	-157.391	-22.3953	-19.27	-167.378	-22.5801	13.0956	-180.802	1.05906	-47.3158	-182.307	-30.6715	-29.656	-190.097	-28.6633	9.87331	-202.424	-1.75297	-45.7218	-207.342	-29.0966	-22.3444	-207.231	-19.7763	9.86259	-231.717	7.26135	-38.4987	-225.069	-12.4303	-21.5143	-214.622	-3.99632	9.09896	-213.938	65.6074	-37.789	-223.941	95.4509	-24.1262	-184.4	80.8973	-23.1776	
190	1.58333	-165.925	80.4437	13.7431	-156.806	48.2861	32.4573	-147.476	23.4395	40.0475	-146.63	-1.21478	46.7219	-152.744	16.2947	-34.4511	-152.866	-13.9816	-19.9573	-158.716	-14.1545	16.1255	-175.285	2.80852	-45.9969	-169.113	-27.2627	-24.355	-178.777	-25.0387	11.3456	-202.786	0.469035	-43.1316	-194.258	-26.1962	-21.7726	-199.733	-19.536	11.5925	-226.9	8.84511	-32.8132	-216.742	-13.1248	-13.0838	-203.72	1.21904	15.3162	-218.103	58.0412	-38.98	-229.233	88.4895	-26.4942	-188.281	86.8099	-24.2267	
191	1.59167	-170.636	86.4605	8.37063	-156.126	63.0722	29.9472	-143.957	39.6639	37.35	-139.852	12.3069	42.6731	-148.521	22.8208	-36.1839	-141.262	-6.04401	-19.9827	-149.374	-6.59864	12.9163	-168.994	8.35636	-45.8303	-161.469	-20.3314	-26.878	-165.618	-18.0566	13.9027	-189.279	1.42502	-42.0199	-184.802	-23.359	-18.5273	-187.91	-15.4333	12.6393	-217.837	5.72805	-29.0523	-207.788	-12.9427	-9.59718	-194.645	7.40448	15.3517	-219.22	58.8107	-39.7505	-233.153	86.3983	-27.5584	-196.985	87.8989	-27.1989	
192	1.6	-172.994	97.5015	6.83322	-151.935	73.0194	25.3334	-138.127	49.6877	30.3617	-128.252	24.1816	40.7254	-142.985	31.0876	-40.7728	-135.455	5.65497	-25.806	-133.468	4.91208	10.6677	-164.467	16.2116	-46.9858	-151.036	-11.2266	-26.8282	-152.37	-10.0818	10.9954	-185.637	3.1576	-40.6702	-171.732	-18.732	-17.7419	-170.461	-7.39556	14.3913	-214.769	3.36282	-26.1544	-197.996	-12.461	-6.7024	-185.146	6.81284	19.0536	-221.074	59.0913	-37.2959	-237.275	87.5037	-24.4723	-200.003	90.3071	-29.6324	
193	1.60833	-180.109	106.071	0.416066	-155.575	83.5849	18.4618	-134.28	61.7813	23.6052	-120.872	42.6094	34.0981	-140.555	40.2281	-46.2193	-124.435	19.134	-31.2279	-123.619	13.2733	3.39574	-155.094	19.6961	-48.4776	-138.73	-0.930656	-29.6373	-138.866	1.07323	9.02259	-177.051	4.71823	-39.9553	-157.584	-10.587	-17.5226	-157.435	-3.61644	11.4822	-202.523	6.28822	-25.903	-183.814	-9.44115	-5.82122	-171.89	12.993	20.2985	-220.35	51.7937	-38.8045	-245.278	77.4685	-27.894	-204.426	90.5467	-34.005	
194	1.61667	-185.975	106.008	-6.27252	-155.11	94.9486	11.254	-135.782	77.9347	16.6702	-119.113	56.0305	21.6469	-142.877	50.1197	-52.1661	-118.251	31.2203	-38.4879	-109.827	27.6657	-11.2166	-151.447	30.1473	-53.02	-126.229	11.7256	-33.7038	-123.311	11.9533	1.18865	-170.852	12.7863	-41.5655	-146.424	-2.07439	-22.6396	-140.245	8.00195	11.6503	-193.125	6.02056	-25.0512	-168.064	-1.15421	-7.06844	-156.362	17.8208	15.0829	-221.579	50.2178	-37.6499	-245.544	70.7715	-24.0325	-213.832	88.6629	-35.6851	
195	1.625	-194.622	112.133	-8.32207	-161.295	104.345	4.73775	-133.515	90.714	6.09513	-115.968	74.9984	14.3275	-146.798	63.2323	-60.0113	-116.958	44.2563	-49.9012	-103.958	41.9518	-22.3552	-150.166	37.7195	-59.8366	-124.011	23.4548	-46.7971	-109.593	27.5376	-8.20557	-165.775	18.1112	-43.9927	-137.515	7.75531	-28.4642	-127.619	15.2954	0.824279	-181.989	9.89671	-26.3085	-158.918	5.50872	-15.3455	-143.308	25.5676	7.47847	-219.792	49.5075	-39.6172	-243.995	65.6241	-25.251	-215.718	86.1723	-40.3488	
196	1.63333	-200.679	111.595	-13.5036	-166.635	111.745	-1.84053	-137.752	103.539	-0.396946	-111.71	87.0987	2.06907	-150.629	71.603	-68.3011	-123.153	56.9028	-63.0924	-102.417	53.8972	-35.4761	-154.191	45.776	-65.8459	-119.61	34.9019	-53.8766	-100.353	42.6036	-22.1121	-160.113	25.047	-50.4835	-127.624	23.151	-36.8043	-117.058	30.1291	-9.53314	-175.666	15.5804	-29.03	-149.745	13.5026	-18.4559	-133.026	30.8715	1.32194	-219.766	46.1307	-38.8613	-247.747	59.162	-23.5023	-222.644	88.722	-39.3739	
197	1.64167	-205.116	116.438	-17.6573	-171.336	116.857	-7.3775	-140.816	109.252	-10.8347	-115.292	100.713	-7.10319	-154.745	76.7969	-76.2877	-123.638	66.0084	-72.0146	-103.425	67.4291	-51.0373	-156.597	48.8047	-71.6176	-122.54	48.0482	-67.6333	-98.3005	53.6883	-35.4825	-159.33	31.5227	-56.2576	-127.309	31.3572	-46.8355	-114.12	37.677	-19.1118	-170.384	19.2773	-31.959	-144.965	20.9478	-22.1044	-125.862	37.8259	-8.96603	-217.951	46.5379	-40.0783	-247.199	56.1624	-18.3487	-225.082	82.7171	-41.3157	
198	1.65	-210.98	117.566	-17.3185	-174.157	117.345	-13.222	-146.734	116.826	-15.8334	-118.918	107.642	-17.5757	-163.807	79.9315	-79.6641	-130.42	75.0246	-84.0164	-106.169	73.5867	-61.7113	-156.346	51.3393	-78.0992	-122.212	50.5935	-72.5982	-99.9574	61.5604	-46.3817	-160.933	32.4968	-59.4117	-125.896	33.8927	-51.1019	-111.684	46.9595	-30.0273	-169.61	20.9192	-33.51	-141.882	24.6638	-26.2944	-123.099	43.3495	-14.3355	-216.75	42.9172	-41.4438	-244.33	53.2233	-18.6795	-231.093	81.7776	-39.9394	
199	1.65833	-211.599	110.877	-20.86	-175.572	117.788	-19.8068	-145.82	119.841	-25.6128	-123.573	113.73	-24.8171	-166.887	77.3286	-85.557	-136.641	74.9351	-89.5354	-109.14	80.46	-72.311	-160.578	55.0255	-83.4314	-128.549	53.9709	-80.8004	-103.293	62.5554	-55.8301	-160.453	36.7127	-63.9857	-127.7	40.2996	-58.476	-110.805	52.3394	-33.3372	-161.169	22.3346	-35.8111	-140.72	30.2098	-31.7756	-121.887	47.9836	-17.7939	-215.97	45.387	-41.589	-243.678	48.9516	-17.4835	-230.963	81.7839	-44.2441	
200	1.66667	-213.312	111.019	-22.7205	-177.982	119.772	-22.9134	-150.072	124.516	-29.3553	-126.213	115.929	-32.4125	-170.783	76.3186	-89.5464	-142.774	76.2472	-96.701	-112.809	83.7306	-81.3279	-166.142	51.982	-82.8734	-127.518	58.9365	-86.9465	-104.782	65.7751	-60.7683	-162.934	39.2264	-66.6795	-128.701	41.003	-63.5214	-110.794	57.9722	-40.2367	-163.469	25.5205	-39.604	-138.185	33.1943	-34.6389	-117.638	53.3955	-22.5162	-217.667	41.0332	-37.9987	-242.315	44.3828	-14.7555	-234.934	74.5573	-38.5874	
201	1.675	-215.288	110.51	-23.7189	-182.236	124.569	-22.299	-156.686	125.598	-31.8631	-129.724	121.233	-35.9653	-176.441	76.154	-89.5366	-143.219	75.533	-100.146	-118.73	83.4855	-87.8625	-167.365	55.2677	-88.6042	-129.912	59.8811	-90.453	-105.412	69.8019	-68.9135	-158.949	35.0565	-69.5941	-125.614	43.1171	-64.8412	-109.313	59.7906	-42.2859	-159.655	24.5672	-42.0641	-132.873	35.3678	-37.254	-118.415	55.7563	-28.2309	-214.522	38.0598	-41.9921	-241.618	44.1663	-14.2153	-236.388	72.81	-38.8633	
202	1.68333	-220.575	108.172	-20.8788	-184.432	117.671	-29.2646	-159.404	123.645	-38.3308	-132.014	123.699	-42.4294	-183.348	78.5063	-92.1873	-150.778	77.9232	-107.307	-123.59	84.703	-93.6698	-171.75	56.1557	-90.4349	-134.058	63.6529	-98.1599	-108.888	71.8141	-76.3658	-161.525	40.5704	-73.9736	-130.522	47.7834	-74.4254	-112.242	63.8617	-53.3677	-156.084	27.9239	-46.0035	-135.173	36.1068	-44.4257	-116.878	59.324	-36.1542	-213.146	38.5722	-42.2275	-239.128	40.3211	-16.0649	-232.969	69.1431	-40.7791	
